<?xml version="1.0" encoding="utf-8"?>
<!-- Generator: Adobe Illustrator 22.0.1, SVG Export Plug-In . SVG Version: 6.00 Build 0)  -->
<svg version="1.1" id="Layer_1" xmlns="http://www.w3.org/2000/svg" xmlns:xlink="http://www.w3.org/1999/xlink" x="0px" y="0px"
	 viewBox="0 0 133.3 28.5" style="enable-background:new 0 0 133.3 28.5;" xml:space="preserve">
<style type="text/css">
	.st0{fill:#5353D1;}
</style>
<g id="Page-1_5_">
	<g id="Mapping_5_" transform="translate(-1943.000000, -448.000000)">
		<g id="Group-3_5_" transform="translate(1943.000000, 448.000000)">
			<g id="Group-4_5_">
				<path id="Fill-1_5_" class="st0" d="M24.8,18c-1,2.5-3,4.5-5.5,5.6c-1.3,0.5-2.7,0.8-4,0.8c-1.3,0-2.6-0.2-3.9-0.7
					c-5.3-2.1-7.9-8-5.7-13.2c1.9-4.6,6.8-7.2,11.7-6.1c0.6,0.1,1.2,0.3,1.7,0.5c0.5,0.2,1,0.5,1.6,0.8l0.2,0.1l-4.6,11.2l-3.8-1.5
					l3-7.4c-2.7-0.2-5.2,1.4-6.2,3.9c-1.3,3.2,0.3,6.8,3.5,8.1c3.2,1.3,6.9-0.3,8.2-3.4c0.6-1.5,0.6-3.1,0-4.6l0-0.1l1.8-4.5
					l0.3,0.4C25.7,10.6,26.3,14.5,24.8,18 M20.3,2C13.4-0.8,5.6,2.5,2.8,9.2C0.1,16,3.4,23.7,10.2,26.4c6.9,2.7,14.7-0.5,17.4-7.3
					C30.5,12.4,27.1,4.7,20.3,2"/>
				<path id="Fill-4_5_" class="st0" d="M130.9,22.9c-0.3,0-0.6-0.3-0.6-0.6c0-0.3,0.2-0.6,0.6-0.6c0.3,0,0.6,0.3,0.6,0.6
					C131.4,22.7,131.2,22.9,130.9,22.9 M130.9,21.6c-0.4,0-0.8,0.3-0.8,0.7c0,0.4,0.3,0.7,0.8,0.7c0.4,0,0.7-0.3,0.7-0.7
					C131.6,21.9,131.3,21.6,130.9,21.6"/>
				<path id="Fill-6_5_" class="st0" d="M130.8,22.3L130.8,22.3l-0.1-0.2c0,0,0,0,0.1,0c0.1,0,0.2,0,0.2,0.1
					C131,22.3,130.9,22.3,130.8,22.3 M131,22.4L131,22.4c0.1,0,0.2-0.1,0.2-0.2c0-0.1,0-0.1-0.1-0.2c-0.1,0-0.1-0.1-0.3-0.1
					c-0.1,0-0.2,0-0.3,0v0.7h0.2v-0.3h0.1c0.1,0,0.1,0,0.2,0.1c0,0.1,0,0.2,0.1,0.2h0.2c0,0,0-0.1-0.1-0.2
					C131.1,22.4,131.1,22.4,131,22.4"/>
				<polygon id="Fill-8_5_" class="st0" points="53.5,23 56,23 56,2.2 53.5,2.2 				"/>
				<polygon id="Fill-10_5_" class="st0" points="60.3,23 62.7,23 62.7,2.2 60.3,2.2 				"/>
				<path id="Fill-11_5_" class="st0" d="M40.2,14.4c0.1-2.1,1.4-4.3,4.1-4.3c1.3,0,2.3,0.5,2.9,1.3c0.6,0.8,0.9,1.9,0.9,3H40.2z
					 M44.3,8c-2.6,0-4.5,1.3-5.6,3c-0.8,1.4-1.1,2.9-1.1,4.7c0,2.1,0.6,4,1.8,5.4c1.1,1.3,2.8,2.2,4.9,2.2c1.4,0,2.7-0.4,3.8-1.1
					c1.2-0.8,2.1-2.2,2.3-3.6H48c-0.2,0.8-0.5,1.2-0.9,1.6c-0.6,0.6-1.6,0.9-2.7,0.9c-1.1,0-2-0.4-2.7-1c-0.9-0.9-1.4-2.3-1.4-3.7
					h10.5l0-1.5c0-2-0.7-3.8-1.9-5.1C47.7,8.8,46.2,8,44.3,8z"/>
				<polygon id="Fill-12_5_" class="st0" points="95.8,6.3 98.5,6.3 98.5,3.8 95.8,3.8 				"/>
				<path id="Fill-13_5_" class="st0" d="M123.8,8c-1.7,0-3.7,0.9-4.5,2.6l-0.2-2.2h-2.2V23h2.5v-6.8c0-1.1,0-2.6,0.5-3.7
					c0.6-1.3,1.8-2.2,3.2-2.2c2.3,0,3.2,1.3,3.2,3.5V23h2.5v-9.6C128.9,10,127.1,8,123.8,8"/>
				<path id="Fill-14_5_" class="st0" d="M110.7,16.8c0,1.2-0.4,2.4-1.3,3.3c-0.8,0.8-1.9,1.2-3,1.2c-2.1,0-2.9-1.2-2.9-2.5
					c0-1.8,1.8-2.5,3.2-2.6l4-0.2V16.8z M113.1,20.1v-7c0-0.8-0.1-1.6-0.4-2.2C112,9.2,110.4,8,107.5,8c-1.8,0-3.6,0.5-4.6,1.6
					c-0.8,0.8-1.3,1.7-1.3,3h2.4c0-0.7,0.3-1.3,0.7-1.8c0.5-0.5,1.3-0.9,2.7-0.9c1.2,0,1.9,0.3,2.4,0.7c0.7,0.6,0.8,1.5,0.8,2.2v1.1
					l-4.5,0.3c-4,0.2-5.3,2.7-5.3,4.5c0,2.2,1.7,4.5,5.1,4.5c2.1,0,3.9-0.9,4.8-2.4h0.1c0,1.2,0.8,2.2,2.1,2.2
					c0.6,0,1.1-0.1,1.6-0.3V21c0,0-0.4,0.1-0.6,0.1C113.5,21.1,113.1,20.9,113.1,20.1z"/>
				<path id="Fill-15_5_" class="st0" d="M75.4,16c0,1.5-0.3,3.1-1.2,4c-0.6,0.7-1.5,1.1-2.5,1.1c-2.3,0-3.2-1.3-3.2-3.5V8.4h-2.5
					V18c0,3.4,1.7,5.3,5.1,5.3c1.7,0,3.6-0.9,4.4-2.6l0.2,2.2h2.2V8.4h-2.5V16z"/>
				<polygon id="Fill-16_5_" class="st0" points="95.8,23 98.4,23 98.4,8.4 95.8,8.4 				"/>
				<path id="Fill-17_5_" class="st0" d="M89.7,20.2c-0.6,0.6-1.5,1-2.5,1c-1.1,0-1.9-0.4-2.6-0.9c-1.2-1-1.5-2.8-1.5-4.6
					c0-1.8,0.3-3.6,1.5-4.6c0.6-0.5,1.4-0.9,2.6-0.9c1,0,1.8,0.3,2.4,0.9c0.6,0.5,0.9,1.3,1.1,2.3h2.5c-0.1-1.6-0.8-2.8-1.8-3.7
					c-1-1-2.5-1.6-4.2-1.6c-2.7,0-4.3,1.2-5.4,2.7c-0.8,1.1-1.2,2.7-1.2,4.9c0,2.2,0.4,3.8,1.2,4.9c1.1,1.5,2.7,2.7,5.4,2.7
					c1.8,0,3.2-0.6,4.3-1.6c1-0.9,1.6-2.1,1.7-3.7h-2.5C90.6,19,90.2,19.7,89.7,20.2"/>
			</g>
		</g>
	</g>
</g>
</svg>
